<?xml version="1.0" encoding="UTF-8"?><svg id="_ÎÓÈ_1" xmlns="http://www.w3.org/2000/svg" viewBox="0 0 420 420"><path d="M266.4,240.9l153.6-30.9-153.08-30.79,52.41-78.54-78.44,52.94L210,0l-30.79,153.08-78.54-52.41,52.94,78.44L0,210l153.08,30.79-52.41,78.54,78.44-52.94,30.9,153.6,30.79-153.08,78.54,52.41-52.94-78.44ZM298.25,298.17l-53.08-53,13.91-2.8,39.17,55.8ZM298.17,121.75l-53,53.08-2.8-13.91,55.8-39.17ZM121.75,121.83l53.08,53-13.91,2.8-39.17-55.8ZM121.83,298.25l53-53.08,2.8,13.91-55.8,39.17ZM210,369.29v-159.29l-27.55,25.23-131.74-25.23h159.29l-25.23-27.55,25.23-131.74v159.29l27.55-25.23,131.74,25.23h-159.29l25.23,27.55-25.23,131.74Z" fill="#f7f7f7"/><path d="M31.97,191.33C40.7,107.51,107.51,40.7,191.33,31.97l1.65-8.19C103.42,31.9,31.9,103.42,23.78,192.98l8.19-1.65Z" fill="#f7f7f7"/><path d="M388.03,228.67c-8.73,83.82-75.54,150.63-159.36,159.36l-1.65,8.19c89.55-8.12,161.07-79.64,169.19-169.19l-8.19,1.65Z" fill="#f7f7f7"/><path d="M228.67,31.97c83.82,8.73,150.63,75.54,159.36,159.36l8.19,1.65c-8.12-89.55-79.64-161.07-169.19-169.19l1.65,8.19Z" fill="#f7f7f7"/><path d="M191.33,388.03c-83.82-8.73-150.63-75.54-159.36-159.36l-8.19-1.65c8.12,89.55,79.64,161.07,169.19,169.19l-1.65-8.19Z" fill="#f7f7f7"/></svg>